<svg width="300" height="300" viewBox="0 0 300 300" fill="none" xmlns="http://www.w3.org/2000/svg">
  <rect width="300" height="300" fill="#f3f4f6"/>
  <path d="M150 100C133.431 100 120 113.431 120 130C120 146.569 133.431 160 150 160C166.569 160 180 146.569 180 130C180 113.431 166.569 100 150 100ZM150 150C138.954 150 130 141.046 130 130C130 118.954 138.954 110 150 110C161.046 110 170 118.954 170 130C170 141.046 161.046 150 150 150Z" fill="#9ca3af"/>
  <path d="M200 180H100C95.5817 180 92 183.582 92 188V200C92 204.418 95.5817 208 100 208H200C204.418 208 208 204.418 208 200V188C208 183.582 204.418 180 200 180ZM200 200H100V188H200V200Z" fill="#9ca3af"/>
  <path d="M120 120H140V140H120V120Z" fill="#9ca3af"/>
  <path d="M160 120H180V140H160V120Z" fill="#9ca3af"/>
  <text x="150" y="250" text-anchor="middle" fill="#6b7280" font-family="Arial, sans-serif" font-size="14">Hotel Image</text>
</svg> 